<svg width="25" height="19" viewBox="0 0 25 19" fill="none" xmlns="http://www.w3.org/2000/svg">
<path d="M20.6109 1.90363C19.0809 1.21363 17.4409 0.703625 15.7259 0.413625C15.7107 0.410693 15.6949 0.412583 15.6807 0.419033C15.6665 0.425482 15.6547 0.436174 15.6469 0.449625C15.4369 0.818625 15.2029 1.29963 15.0389 1.67963C13.22 1.40786 11.3708 1.40786 9.55194 1.67963C9.36927 1.25849 9.16329 0.847849 8.93494 0.449625C8.9272 0.436008 8.91549 0.425075 8.90137 0.418285C8.88726 0.411496 8.87141 0.409172 8.85594 0.411625C7.14194 0.701625 5.50194 1.21163 3.97094 1.90263C3.95777 1.90815 3.9466 1.91757 3.93894 1.92963C0.826938 6.50463 -0.0260623 10.9666 0.392938 15.3726C0.394104 15.3834 0.397453 15.3939 0.402783 15.4033C0.408112 15.4128 0.41531 15.421 0.423938 15.4276C2.24033 16.75 4.26627 17.7574 6.41694 18.4076C6.43193 18.4122 6.44797 18.4122 6.46295 18.4076C6.47794 18.403 6.49117 18.3939 6.50094 18.3816C6.96373 17.7627 7.37384 17.1061 7.72694 16.4186C7.73184 16.4092 7.73466 16.3989 7.73522 16.3883C7.73578 16.3777 7.73405 16.3671 7.73017 16.3573C7.72628 16.3474 7.72032 16.3385 7.71269 16.3311C7.70506 16.3238 7.69593 16.3182 7.68594 16.3146C7.03994 16.0714 6.41402 15.7778 5.81394 15.4366C5.80315 15.4305 5.79407 15.4217 5.78749 15.4112C5.78092 15.4007 5.77706 15.3887 5.77627 15.3763C5.77548 15.3639 5.77777 15.3515 5.78295 15.3402C5.78813 15.3289 5.79603 15.3191 5.80594 15.3116C5.93194 15.2186 6.05794 15.1216 6.17794 15.0246C6.18874 15.0159 6.20175 15.0103 6.21552 15.0086C6.22929 15.0068 6.24328 15.0089 6.25594 15.0146C10.1829 16.7786 14.4359 16.7786 18.3169 15.0146C18.3296 15.0086 18.3438 15.0062 18.3577 15.0078C18.3717 15.0094 18.3849 15.0149 18.3959 15.0236C18.5159 15.1216 18.6409 15.2186 18.7679 15.3116C18.7779 15.3189 18.786 15.3286 18.7913 15.3398C18.7967 15.351 18.7991 15.3634 18.7985 15.3757C18.798 15.3881 18.7943 15.4002 18.7879 15.4108C18.7815 15.4214 18.7726 15.4303 18.7619 15.4366C18.1639 15.7806 17.5419 16.0716 16.8889 16.3136C16.8789 16.3173 16.8698 16.323 16.8621 16.3305C16.8545 16.3379 16.8485 16.3469 16.8447 16.3568C16.8408 16.3668 16.8391 16.3774 16.8396 16.3881C16.8402 16.3987 16.843 16.4092 16.8479 16.4186C17.2079 17.1056 17.6199 17.7596 18.0729 18.3806C18.0824 18.3934 18.0955 18.4029 18.1105 18.4079C18.1255 18.4129 18.1418 18.4132 18.1569 18.4086C20.3113 17.7603 22.3405 16.7524 24.1589 15.4276C24.1678 15.4214 24.1753 15.4134 24.1808 15.4041C24.1863 15.3948 24.1898 15.3844 24.1909 15.3736C24.6909 10.2796 23.3529 5.85363 20.6419 1.93163C20.6353 1.91888 20.6243 1.90894 20.6109 1.90363ZM8.31394 12.6896C7.13194 12.6896 6.15694 11.6206 6.15694 10.3096C6.15694 8.99762 7.11294 7.92962 8.31394 7.92962C9.52394 7.92962 10.4899 9.00662 10.4709 10.3096C10.4709 11.6216 9.51494 12.6896 8.31394 12.6896ZM16.2889 12.6896C15.1059 12.6896 14.1319 11.6206 14.1319 10.3096C14.1319 8.99762 15.0869 7.92962 16.2889 7.92962C17.4989 7.92962 18.4649 9.00662 18.4459 10.3096C18.4459 11.6216 17.4999 12.6896 16.2889 12.6896Z" fill="black"/>
</svg>
