<svg width="26" height="25" viewBox="0 0 26 25" fill="none" xmlns="http://www.w3.org/2000/svg">
<path d="M25.5 12.5C25.5 15.8152 24.183 18.9946 21.8388 21.3388C19.4946 23.683 16.3152 25 13 25C9.68479 25 6.50537 23.683 4.16117 21.3388C1.81696 18.9946 0.5 15.8152 0.5 12.5C0.5 9.18479 1.81696 6.00537 4.16117 3.66117C6.50537 1.31696 9.68479 0 13 0C16.3152 0 19.4946 1.31696 21.8388 3.66117C24.183 6.00537 25.5 9.18479 25.5 12.5ZM13.7812 7.03125C13.7812 6.82405 13.6989 6.62534 13.5524 6.47882C13.4059 6.33231 13.2072 6.25 13 6.25C12.7928 6.25 12.5941 6.33231 12.4476 6.47882C12.3011 6.62534 12.2188 6.82405 12.2188 7.03125V16.0828L8.86563 12.7281C8.71893 12.5814 8.51996 12.499 8.3125 12.499C8.10504 12.499 7.90607 12.5814 7.75937 12.7281C7.61268 12.8748 7.53026 13.0738 7.53026 13.2812C7.53026 13.4887 7.61268 13.6877 7.75937 13.8344L12.4469 18.5219C12.5194 18.5946 12.6057 18.6524 12.7006 18.6917C12.7955 18.7311 12.8972 18.7514 13 18.7514C13.1028 18.7514 13.2045 18.7311 13.2994 18.6917C13.3943 18.6524 13.4806 18.5946 13.5531 18.5219L18.2406 13.8344C18.3873 13.6877 18.4697 13.4887 18.4697 13.2812C18.4697 13.0738 18.3873 12.8748 18.2406 12.7281C18.0939 12.5814 17.895 12.499 17.6875 12.499C17.48 12.499 17.2811 12.5814 17.1344 12.7281L13.7812 16.0828V7.03125Z" fill="black"/>
</svg>
