<svg width="23" height="19" viewBox="0 0 23 19" fill="none" xmlns="http://www.w3.org/2000/svg">
<path d="M22.9999 2.60019C22.1649 2.97019 21.2679 3.22019 20.3249 3.33319C21.2979 2.75099 22.0259 1.83466 22.3729 0.755193C21.4588 1.29818 20.4583 1.68039 19.4149 1.88519C18.7133 1.13606 17.784 0.63952 16.7713 0.472667C15.7585 0.305815 14.719 0.477985 13.8142 0.962446C12.9093 1.44691 12.1897 2.21656 11.7671 3.1519C11.3445 4.08724 11.2425 5.13594 11.4769 6.13519C9.62463 6.04219 7.81257 5.56074 6.15837 4.7221C4.50417 3.88345 3.04479 2.70635 1.87495 1.26719C1.47495 1.95719 1.24495 2.75719 1.24495 3.60919C1.2445 4.37619 1.43338 5.13144 1.79482 5.80793C2.15627 6.48442 2.67911 7.06123 3.31695 7.48719C2.57722 7.46366 1.85382 7.26378 1.20695 6.90419V6.96419C1.20687 8.03993 1.57898 9.08257 2.26013 9.91519C2.94128 10.7478 3.88952 11.3191 4.94395 11.5322C4.25773 11.7179 3.53828 11.7453 2.83995 11.6122C3.13744 12.5378 3.71694 13.3472 4.49731 13.9271C5.27768 14.507 6.21986 14.8284 7.19195 14.8462C5.54178 16.1416 3.50383 16.8443 1.40595 16.8412C1.03433 16.8413 0.663022 16.8196 0.293945 16.7762C2.42342 18.1454 4.90229 18.872 7.43395 18.8692C16.0039 18.8692 20.6889 11.7712 20.6889 5.61519C20.6889 5.41519 20.6839 5.21319 20.6749 5.01319C21.5862 4.35417 22.3729 3.53809 22.9979 2.60319L22.9999 2.60019Z" fill="black"/>
</svg>
